<mxfile host="app.diagrams.net" modified="2023-10-18T13:56:03.526Z" agent="Mozilla/5.0 (Windows NT 10.0; Win64; x64) AppleWebKit/537.36 (KHTML, like Gecko) Chrome/118.0.0.0 Safari/537.36" version="22.0.0" etag="6yjjrTn3iOMJih68JN3A" type="github">
  <diagram name="Page-1" id="4fmtbWJVaS0Hmp3N319x">
    <mxGraphModel>
      <root>
        <mxCell id="0" />
        <mxCell id="1" parent="0" />
      </root>
    </mxGraphModel>
  </diagram>
</mxfile>
